<?xml version="1.0" encoding="UTF-8"?>
<!DOCTYPE svg PUBLIC "-//W3C//DTD SVG 1.1//EN" "http://www.w3.org/Graphics/SVG/1.1/DTD/svg11.dtd">
<!-- Creator: CorelDRAW 2020 (64-Bit) -->
<svg xmlns="http://www.w3.org/2000/svg" xml:space="preserve" width="2221.89mm" height="2643.64mm" version="1.1" style="shape-rendering:geometricPrecision; text-rendering:geometricPrecision; image-rendering:optimizeQuality; fill-rule:evenodd; clip-rule:evenodd"
viewBox="0 0 220844.04 262762.86"
 xmlns:xlink="http://www.w3.org/1999/xlink"
 xmlns:xodm="http://www.corel.com/coreldraw/odm/2003">
 <defs>
  <style type="text/css">
   <![CDATA[
    .str0 {stroke:#332C2B;stroke-width:74.55;stroke-miterlimit:22.9256}
    .str1 {stroke:#332C2B;stroke-width:19.88;stroke-miterlimit:22.9256}
    .str2 {stroke:black;stroke-width:19.88;stroke-miterlimit:22.9256}
    .fil0 {fill:#FEFEFE}
    .fil20 {fill:#DCDDDD}
    .fil1 {fill:#A1A1A1}
    .fil12 {fill:#8B8B8C}
    .fil5 {fill:#28A499}
    .fil4 {fill:#128C84}
    .fil3 {fill:#10806C}
    .fil14 {fill:#017CC2}
    .fil6 {fill:#01B28D}
    .fil9 {fill:#56A61C}
    .fil7 {fill:#6AC0B7}
    .fil11 {fill:#88502F}
    .fil8 {fill:#A7CF06}
    .fil19 {fill:#DECFB0}
    .fil15 {fill:#E00B00}
    .fil10 {fill:#F5B802}
    .fil22 {fill:#FED67C}
    .fil13 {fill:white}
    .fil21 {fill:#BFAA8B;fill-rule:nonzero}
    .fil16 {fill:#10806C;fill-rule:nonzero}
    .fil17 {fill:#1959A0;fill-rule:nonzero}
    .fil2 {fill:#C4B65E;fill-rule:nonzero}
    .fil18 {fill:white;fill-rule:nonzero}
   ]]>
  </style>
   <mask id="id0">
  <linearGradient id="id1" gradientUnits="userSpaceOnUse" x1="60962.26" y1="78115.23" x2="60962.26" y2="91316.37">
   <stop offset="0" style="stop-opacity:1; stop-color:white"/>
   <stop offset="1" style="stop-opacity:0; stop-color:white"/>
  </linearGradient>
    <rect style="fill:url(#id1)" x="56360.42" y="78848.19" width="13456.81" height="13456.81"/>
   </mask>
 </defs>
 <g id="图层_x0020_1">
  <metadata id="CorelCorpID_0Corel-Layer"/>
  <polygon class="fil0 str0" points="37.27,37.27 220806.76,37.27 220806.76,251714.42 37.27,251714.42 "/>
  <polygon class="fil1 str1" points="37.27,251714.46 220806.76,251714.46 220806.76,262752.93 37.27,262752.93 "/>
  <path class="fil2" d="M19019.34 122961.59l29984.19 0c586.1,538.1 1192.03,1054.99 1817.31,1548.5l-33350.01 0 0 -27769.68 21358.44 0c-44.59,512.71 -77.11,1028.97 -97.24,1548.5l-19712.69 0 0 24672.69zm72974.38 0l110173.02 0 0 -24672.69 -99901.52 0c-20.13,-519.53 -52.65,-1035.79 -97.25,-1548.5l101547.12 0c1.86,9256.61 1.86,18513.07 0,27769.68l-774.09 0 -112764.59 0c625.28,-493.5 1231.21,-1010.39 1817.32,-1548.5z"/>
  <path class="fil3" d="M70498.7 67744.16c17558.89,0 31793.15,14234.26 31793.15,31793.3 0,17558.89 -14234.27,31793.15 -31793.15,31793.15 -17559.04,0 -31793.3,-14234.27 -31793.3,-31793.15 0,-17559.04 14234.26,-31793.3 31793.3,-31793.3zm0 1930.2c16492.9,0 29862.94,13370.04 29862.94,29863.1 0,16492.9 -13370.04,29862.95 -29862.94,29862.95 -16493.06,0 -29863.1,-13370.05 -29863.1,-29862.95 0,-16493.06 13370.04,-29863.1 29863.1,-29863.1z"/>
  <path class="fil4" d="M97125.75 113071.49c-4935.53,9690.96 -15006.2,16328.92 -26627.21,16328.92 -10660.63,0 -20016.5,-5586.21 -25300.29,-13990.84 432.64,-402.15 876.29,-724.55 1328.3,-983.61l0 -18336.39 932.04 0 0 -1966.59 2325.07 0 0 -4240.41 1474.94 0 0 4240.41 2325.08 0 0 1966.59 932.19 0 0 17061.05c193.56,-28.03 385.73,-60.86 576.35,-100.5l27.56 -5.74 0 -14753.62 512.25 0 0 -676.7 545.84 0 0 -655.79 862.97 0 0 -973.07 752.27 0 0 797.47 1126.69 0 0 -797.47 752.26 0 0 973.07 862.98 0 0 655.79 545.84 0 0 676.7 512.24 0 0 13257c179.93,-37.94 360.95,-75.1 543.21,-111.64l0 -12032.45 707.04 0 0 -1512.27 430.18 0 0 -1044.78 296.84 0 0 -1447.84 409.73 0 0 1447.84 296.85 0 0 1044.78 430.17 0 0 1512.27 707.04 0 0 2258.63 5461.87 0 0 9071.26c201.46,19.05 400.44,39.96 597.72,62.41l0 -7083.77 394.41 0 0 -831.85 673.75 0 0 -1793.93 624.05 0 0 1793.93 673.9 0 0 831.85 394.4 0 0 1370.74 2255.86 0 0 6592.73 445.51 95.23 0 -9827.7 4445.43 0 0 10701.68c152.05,25.09 305.67,49.86 460.98,74.02l0 -1722.09 2007.01 0 0 -614.6 -2007.01 0 0 -635.04 2007.01 0 0 -614.6 -2007.01 0 0 -655.48 2007.01 0 0 -614.61 -2007.01 0 0 -696.52 2007.01 0 0 -614.6 -2007.01 0 0 -676.07 2007.01 0 0 -614.6 -2007.01 0 0 -675.92 2007.01 0 0 -614.6 -2007.01 0 0 -737.56 2007.01 0 0 -614.6 -2007.01 0 0 -655.48 2007.01 0 0 -614.61 -2007.01 0 0 -582.38 2007.01 0 0 -614.61 -2007.01 0 0 -605.46 2007.01 0 0 -614.6 -2007.01 0 0 -3175.2 757.99 0 0 -1270.07 594.16 0 0 1270.07 655.48 0 0 1618.33 2437.8 0 0 6113.79 732.13 0 0 -602.99 409.57 0 0 -637.52 327.82 0 0 -503.11 2273.97 0 0 503.11 327.66 0 0 637.52 409.73 0 0 602.99 1177.94 0 0 9851.85c304.74,-6.35 614.75,-14.55 930.49,-24.93l385.1 -13982.79c-163.67,-89.35 -287.55,-242.49 -338.19,-425.98l-521.53 156.86 97.09 390.21 -4463.23 889.46 -92.14 -367.46 4302.5 -1538.9 74.18 298.24 598.03 -179.78c55.9,-228.71 224.53,-413.29 443.96,-490.87l0 -605.46 -351.82 3.25 412.83 -4550.73 378.92 -2.63 255.96 4543.76 -357.85 3.25 0 576.82c316.51,48.16 563.03,309.39 588.58,632.87l590.59 152.37 79.13 -290.66 4268.13 1631.5 -100.03 365.29 -4443.11 -986.08 107.16 -393.94 -557.92 -143.85c-60.39,137.81 -163.99,252.09 -293.75,326.11l374.43 13929.51c893.64,-44.76 1829.54,-105.46 2811.92,-183.65zm-19703.41 -10452.37l790.36 0 0 1648.99 -790.36 0 0 -1648.99zm0 7016.25l790.36 0 0 1648.99 -790.36 0 0 -1648.99zm1392.57 0l790.51 0 0 1648.99 -790.51 0 0 -1648.99zm1289.29 0l790.35 0 0 1648.99 -790.35 0 0 -1648.99zm-2681.85 -2335.44l790.36 0 0 1648.99 -790.36 0 0 -1648.99zm1392.57 0l790.51 0 0 1648.99 -790.51 0 0 -1648.99zm1289.29 0l790.35 0 0 1648.99 -790.35 0 0 -1648.99zm-2681.85 -2355.74l790.36 0 0 1649 -790.36 0 0 -1649zm1392.57 0l790.51 0 0 1649 -790.51 0 0 -1649zm0 -2325.07l790.51 0 0 1648.99 -790.51 0 0 -1648.99zm1289.29 0l790.35 0 0 1648.99 -790.35 0 0 -1648.99zm0 2325.07l790.35 0 0 1649 -790.35 0 0 -1649zm7570.91 -1691.11l2437.81 0 0 286.78 -2437.81 0 0 -286.78zm-1167.88 7510.53l1025.26 0 0 1025.25 -1025.26 0 0 -1025.25zm3748.14 -6452.13l1025.26 0 0 1025.26 -1025.26 0 0 -1025.26zm-1900.78 0l1025.26 0 0 1025.26 -1025.26 0 0 -1025.26zm-1847.36 0l1025.26 0 0 1025.26 -1025.26 0 0 -1025.26zm3748.14 1597.12l1025.26 0 0 1025.26 -1025.26 0 0 -1025.26zm-1900.78 0l1025.26 0 0 1025.26 -1025.26 0 0 -1025.26zm-1847.36 0l1025.26 0 0 1025.26 -1025.26 0 0 -1025.26zm3748.14 1658.91l1025.26 0 0 1025.25 -1025.26 0 0 -1025.25zm-1900.78 0l1025.26 0 0 1025.25 -1025.26 0 0 -1025.25zm-1847.36 0l1025.26 0 0 1025.25 -1025.26 0 0 -1025.25zm3748.14 1597.12l1025.26 0 0 1025.25 -1025.26 0 0 -1025.25zm-1900.78 0l1025.26 0 0 1025.25 -1025.26 0 0 -1025.25zm-1847.36 0l1025.26 0 0 1025.25 -1025.26 0 0 -1025.25zm3748.14 1598.98l1025.26 0 0 1025.25 -1025.26 0 0 -1025.25zm-1900.78 0l1025.26 0 0 1025.25 -1025.26 0 0 -1025.25zm-13866.96 -4973.93l573.57 0 0 1051.73 -573.57 0 0 -1051.73zm952.64 3562.32l573.57 0 0 1051.73 -573.57 0 0 -1051.73zm-952.64 0l573.57 0 0 1051.73 -573.57 0 0 -1051.73zm952.64 -1837.3l573.57 0 0 1051.74 -573.57 0 0 -1051.74zm-952.64 0l573.57 0 0 1051.74 -573.57 0 0 -1051.74zm952.64 -1725.02l573.57 0 0 1051.73 -573.57 0 0 -1051.73zm-3455.01 3867.52l1737.58 0 0 537.34 -1737.58 0 0 -537.34zm0 -5442.65l1737.58 0 0 537.33 -1737.58 0 0 -537.33zm0 970.75l1737.58 0 0 537.34 -1737.58 0 0 -537.34zm0 1109.19l1737.58 0 0 537.33 -1737.58 0 0 -537.33zm0 1126.69l1737.58 0 0 537.33 -1737.58 0 0 -537.33zm0 1126.69l1737.58 0 0 537.33 -1737.58 0 0 -537.33zm-6076.3 -6148l983.3 0 0 983.29 -983.3 0 0 -983.29zm3369.84 6442.68l983.3 0 0 983.29 -983.3 0 0 -983.29zm-1659.37 0l983.3 0 0 983.29 -983.3 0 0 -983.29zm-1710.47 0l983.3 0 0 983.29 -983.3 0 0 -983.29zm3369.84 -1659.53l983.3 0 0 983.3 -983.3 0 0 -983.3zm-1659.37 0l983.3 0 0 983.3 -983.3 0 0 -983.3zm-1710.47 0l983.3 0 0 983.3 -983.3 0 0 -983.3zm3369.84 -1661.07l983.3 0 0 983.3 -983.3 0 0 -983.3zm-1659.37 0l983.3 0 0 983.3 -983.3 0 0 -983.3zm-1710.47 0l983.3 0 0 983.3 -983.3 0 0 -983.3zm3369.84 -1556.87l983.3 0 0 983.3 -983.3 0 0 -983.3zm-1659.37 0l983.3 0 0 983.3 -983.3 0 0 -983.3zm-1710.47 0l983.3 0 0 983.3 -983.3 0 0 -983.3zm3369.84 -1565.22l983.3 0 0 983.29 -983.3 0 0 -983.29zm-1659.37 0l983.3 0 0 983.29 -983.3 0 0 -983.29zm-4929.64 -1851.54l737.39 0 0 737.4 -737.39 0 0 -737.4zm1382.81 8726.87l737.4 0 0 737.4 -737.4 0 0 -737.4zm-1382.81 0l737.39 0 0 737.4 -737.39 0 0 -737.4zm1382.81 -1454.35l737.4 0 0 737.4 -737.4 0 0 -737.4zm-1382.81 0l737.39 0 0 737.4 -737.39 0 0 -737.4zm1382.81 -1413.62l737.4 0 0 737.4 -737.4 0 0 -737.4zm-1382.81 0l737.39 0 0 737.4 -737.39 0 0 -737.4zm1382.81 -1495.54l737.4 0 0 737.39 -737.4 0 0 -737.39zm-1382.81 0l737.39 0 0 737.39 -737.39 0 0 -737.39zm1382.81 -1413.47l737.4 0 0 737.4 -737.4 0 0 -737.4zm-1382.81 0l737.39 0 0 737.4 -737.39 0 0 -737.4zm1382.81 -1495.39l737.4 0 0 737.4 -737.4 0 0 -737.4zm-1382.81 0l737.39 0 0 737.4 -737.39 0 0 -737.4zm1382.81 -1454.5l737.4 0 0 737.4 -737.4 0 0 -737.4zm-8205.49 -918.72l742.2 0 0 742.19 -742.2 0 0 -742.19zm4266.58 10309.44l742.2 0 0 742.19 -742.2 0 0 -742.19zm-1437.78 0l742.2 0 0 742.19 -742.2 0 0 -742.19zm-1414.39 0l742.04 0 0 742.19 -742.04 0 0 -742.19zm-1414.4 0l742.2 0 0 742.19 -742.2 0 0 -742.19zm4266.58 -1495.39l742.2 0 0 742.2 -742.2 0 0 -742.2zm-1437.78 0l742.2 0 0 742.2 -742.2 0 0 -742.2zm-1414.39 0l742.04 0 0 742.2 -742.04 0 0 -742.2zm-1414.4 0l742.2 0 0 742.2 -742.2 0 0 -742.2zm4266.58 -1513.19l742.2 0 0 742.2 -742.2 0 0 -742.2zm-1437.78 0l742.2 0 0 742.2 -742.2 0 0 -742.2zm-1414.39 0l742.04 0 0 742.2 -742.04 0 0 -742.2zm-1414.4 0l742.2 0 0 742.2 -742.2 0 0 -742.2zm4266.58 -1372.59l742.2 0 0 742.2 -742.2 0 0 -742.2zm-1437.78 0l742.2 0 0 742.2 -742.2 0 0 -742.2zm-1414.39 0l742.04 0 0 742.2 -742.04 0 0 -742.2zm-1414.4 0l742.2 0 0 742.2 -742.2 0 0 -742.2zm4266.58 -1536.42l742.2 0 0 742.2 -742.2 0 0 -742.2zm-1437.78 0l742.2 0 0 742.2 -742.2 0 0 -742.2zm-1414.39 0l742.04 0 0 742.2 -742.04 0 0 -742.2zm-1414.4 0l742.2 0 0 742.2 -742.2 0 0 -742.2zm4266.58 -1390.71l742.2 0 0 742.2 -742.2 0 0 -742.2zm-1437.78 0l742.2 0 0 742.2 -742.2 0 0 -742.2zm-1414.39 0l742.04 0 0 742.2 -742.04 0 0 -742.2zm-1414.4 0l742.2 0 0 742.2 -742.2 0 0 -742.2zm4266.58 -1454.5l742.2 0 0 742.2 -742.2 0 0 -742.2zm-1437.78 0l742.2 0 0 742.2 -742.2 0 0 -742.2zm-1414.39 0l742.04 0 0 742.2 -742.04 0 0 -742.2zm-1414.4 0l742.2 0 0 742.2 -742.2 0 0 -742.2zm4266.58 -1546.64l742.2 0 0 742.19 -742.2 0 0 -742.19zm-1437.78 0l742.2 0 0 742.19 -742.2 0 0 -742.19zm-1414.39 0l742.04 0 0 742.19 -742.04 0 0 -742.19zm-707.36 -1720.23l3564.5 0 0 471.21 -3564.5 0 0 -471.21zm-8838.83 12232.52l5571.81 0 0 1270.07 -5571.81 0 0 -1270.07zm0 -12864.93l5571.81 0 0 1270.08 -5571.81 0 0 -1270.08zm0 2294.41l5571.81 0 0 1270.08 -5571.81 0 0 -1270.08zm0 2622.08l5571.81 0 0 1270.07 -5571.81 0 0 -1270.07zm0 2663.11l5571.81 0 0 1270.07 -5571.81 0 0 -1270.07zm0 2663.11l5571.81 0 0 1270.07 -5571.81 0 0 -1270.07z"/>
  <path class="fil5" d="M95254.7 116243.9c-5367.41,7937.91 -14452.45,13156.51 -24756.16,13156.51 -9244.84,0 -17508.4,-4200.93 -22986.06,-10797.84 2844.59,-1126.99 4984.93,1181.97 7840.36,834.03 6871.78,-2179.51 7654.38,-6055.72 14584.38,-6275.45 6857.38,425.99 8091.69,2863.02 13815.71,3844.46 5550.91,400.75 8105.46,-1207.36 11501.78,-761.71z"/>
  <path class="fil6" d="M93273.08 118854.66c-5477.81,6451.51 -13648,10545.75 -22774.54,10545.75 -8729.34,0 -16583.94,-3745.51 -22044.11,-9716.99 4166.39,-274.24 6435.87,2137.24 9748.57,1886.07 5336.12,-404.47 9242.37,-4310.55 13850.85,-5073.5 7511.92,-940.71 6574.3,2972.34 21219.23,2358.67z"/>
  <path class="fil7" d="M90284.48 121905.68c-5268.3,4663.61 -12196.59,7494.73 -19785.94,7494.73 -6839.25,0 -13141.63,-2299.06 -18176.12,-6166.59 6205.46,-1311.57 7277.01,1410.07 12295.7,1476.96 3031.49,176.52 5011.72,-998.16 7108.38,-1088.6 2275.99,-98.01 4660.83,876.3 7901.22,809.56 3766.56,-246.05 3782.05,-3581.05 10656.76,-2526.06z"/>
  <path class="fil8" d="M32284.36 65358.3c-3803.6,0 -6886.99,3083.39 -6886.99,6886.98 0,3803.58 3083.39,6886.99 6886.99,6886.99 3803.57,0 6886.98,-3083.41 6886.98,-6886.99 0,-3803.59 -3083.41,-6886.98 -6886.98,-6886.98z"/>
  <path class="fil9" d="M36021.74 81868.71c-1651.47,0 -2990.14,1338.7 -2990.14,2990.14 0,1651.47 1338.68,2990.17 2990.14,2990.17 1651.47,0 2990.15,-1338.7 2990.15,-2990.17 0,-1651.44 -1338.69,-2990.14 -2990.15,-2990.14z"/>
  <path class="fil10" d="M29025.66 81032.33c-1358.45,0 -2459.67,1101.19 -2459.67,2459.67 0,1358.45 1101.21,2459.67 2459.67,2459.67 1358.47,0 2459.67,-1101.21 2459.67,-2459.67 0,-1358.47 -1101.19,-2459.67 -2459.67,-2459.67z"/>
  <path class="fil9" d="M24679.51 88371.85c-968.65,0 -1753.84,785.2 -1753.84,1753.85 0,968.65 785.19,1753.85 1753.84,1753.85 968.64,0 1753.85,-785.2 1753.85,-1753.85 0,-968.65 -785.21,-1753.85 -1753.85,-1753.85z"/>
  <path class="fil8" d="M18862.58 82518.06c-1315.04,0 -2381.03,1065.99 -2381.03,2381.03 0,1315.03 1065.99,2381.02 2381.03,2381.02 1315.03,0 2381.02,-1065.99 2381.02,-2381.02 0,-1315.04 -1065.99,-2381.03 -2381.02,-2381.03z"/>
  <path class="fil10" d="M21843.48 71145.43c-3165.2,0 -5730.98,2565.78 -5730.98,5730.99 0,3165.21 2565.78,5730.99 5730.98,5730.99 2847.28,0 5209.55,-2076.33 5655.32,-4797.36 -1290.99,-1246.08 -2532.13,-2502.85 -2519.02,-5731.09 -901.09,-590.21 -1978.63,-933.53 -3136.29,-933.53z"/>
  <polygon class="fil11" points="32703.43,68119.95 32014.75,68119.95 32014.75,74096.54 28780.3,70653.29 28780.11,71317.79 32014.75,75400.07 32014.75,85140.27 29825.57,83504.59 29760.77,83901.07 32014.75,85927.39 32014.75,92809.35 32703.43,92709.23 32703.43,88866.78 36540.47,84636.13 36226.91,84277.48 32703.43,87649.16 32703.43,71612.47 34179.31,69718.45 34181.17,68924.45 32703.43,70370.21 "/>
  <polygon class="fil11" points="22274.56,74761.04 21585.79,74761.04 21585.79,79925.7 18376.06,77275.5 18119.39,77529.39 21585.79,80952.56 21585.79,86806.44 18978.65,84592.72 18806.85,84777.62 21585.79,87593.57 21585.79,94487.8 22274.56,94367.31 22274.56,91344.63 24795.81,90091.76 24660.54,89856.37 22274.56,90668.32 22274.56,78800.47 24433.07,76537.66 24136.52,76225.11 22274.56,77785.88 "/>
  <path class="fil10 str2" d="M211973.69 97201.4c-28073.35,-10674.57 -69710.15,-15760.93 -113214.9,-12241.96l123.88 242.64c70.3,139.06 139.68,278.73 208.12,418.88 39.95,82.07 79.9,164.14 119.08,246.52 72.78,152.37 144,305.67 214.46,459.44l111.65 246.67c70.92,158.57 140.44,317.75 208.89,477.56l98.48 233.21c67.68,161.96 134.26,324.56 199.45,487.93l86.24 219.12c64.88,166.31 128.22,333.23 190.31,500.78l81.76 223.14c61.48,169.87 121.4,340.52 180.24,511.78l77.43 229.01c57.76,172.82 114.12,346.09 168.94,520.14l67.36 216.48c55.9,181.95 110.41,364.67 163.06,548.17l53.58 188.92c52.33,186.74 103.12,374.27 152.21,562.25l51.72 201.61c47.69,187.84 93.68,376.45 138.12,565.67l44.91 194.49c43.67,192.17 85.79,384.96 126.05,578.37l39.8 195.11c40.11,198.98 78.35,398.58 114.74,598.96l29.58 165.38c37.31,212.14 72.62,424.9 105.76,638.6l22.15 145.71c31.44,208.74 60.55,417.93 87.81,627.91l21.05 166c26.17,210.6 50.48,421.65 72.48,633.49l16.25 157.95c21.84,218.65 41.04,438.22 58.38,658.26l10.38 134.57c16.88,227.01 31.28,454.64 43.36,683.04 28204.65,-377.68 57175.83,7077.88 84646.65,20964.81l25080.56 -21600.61zm-173013.1 -1710.16c-10180.6,2864.41 -20164.08,6296.04 -29792.18,10334.51l16388.38 15732.75c5155.41,-3473.13 10439.82,-6542.56 15830.61,-9226.41 -106.07,-241.1 -209.36,-483.91 -309.7,-728.1l-13.79 -33.91c-96.46,-235.53 -189.99,-472.45 -280.89,-710.76l-15.64 -40.88c-80.83,-212.76 -159.34,-426.61 -235.68,-641.54l-59.77 -170.02c-56.98,-163.52 -112.89,-327.51 -167.4,-492.27 -32.2,-97.4 -63.79,-195.11 -95.07,-292.98 -46.92,-146.8 -92.91,-294.22 -137.66,-441.95 -35.3,-116.13 -69.99,-232.42 -104.07,-349.18 -36.39,-124.81 -71.84,-250.24 -106.69,-375.66 -37.78,-136.11 -74.94,-272.69 -110.86,-409.58 -26.17,-99.26 -51.72,-198.67 -76.96,-298.23 -41.19,-163.06 -80.99,-326.58 -119.7,-490.57l-59.31 -255.65c-40.57,-178.23 -79.44,-357.24 -116.91,-536.71l-46.77 -227.94c-38.71,-192.48 -75.73,-385.42 -111.03,-579.13l-31.59 -176.68c-36.7,-208.12 -71.23,-417.33 -103.91,-626.83l-21.21 -138.44c-33.91,-224.38 -65.35,-449.84 -94.61,-675.76l-11.61 -90.28c-30.36,-240.63 -57.92,-482.2 -82.85,-724.39l-7.13 -70.3c-24.93,-248.07 -47.07,-496.6 -66.28,-746.38l-3.72 -48.31c-19.2,-254.11 -35.3,-508.99 -48.46,-764.8l-2.47 -48.01c-12.86,-260.15 -22.92,-521.22 -29.74,-783.08l-0.31 -14.55c-6.97,-269.75 -10.22,-540.27 -10.22,-811.73 0,-273.93 3.41,-547.09 10.38,-819.31l0 -1.24 0.31 -12.23c6.81,-266.81 17.19,-532.68 30.5,-797.79l0.47 -9.76c13.63,-268.5 30.65,-536.08 50.94,-802.74l0.47 -6.19c20.13,-263.09 43.36,-525.25 69.69,-786.48l1.39 -15.02 1.08 -10.07c26.64,-261.39 56.67,-522.31 89.5,-781.84l0.47 -3.56z"/>
  <g id="_1615103014384">
   <path class="fil12" d="M65984.4 56609.25c0,0 3608.42,-2089.08 6362.21,1519.33l1044.54 -949.59 569.75 -569.75c0,0 284.87,-1994.12 3513.46,-2373.96l-3323.53 4083.21 284.87 522.28c0,0 142.43,237.39 -664.71,237.39l-617.23 237.39 -949.59 997.07 -569.75 379.83 -569.75 94.96 -332.36 -237.39 142.44 -522.27 427.31 -474.8 237.39 -189.91 47.48 -474.79 -189.91 -284.87c0,0 -2373.96,-1614.3 -4225.65,-1851.69l-735.93 -23.75 -451.05 -118.7z"/>
   <path class="fil12" d="M50046.4 53945.2c0,0 3028.44,-1753.31 5339.63,1275.14l876.65 -796.97 478.18 -478.18c0,0 239.09,-1673.61 2948.76,-1992.39l-2789.36 3426.92 239.08 438.33c0,0 119.54,199.24 -557.87,199.24l-518.02 199.25 -796.96 836.8 -478.18 318.79 -478.18 79.69 -278.94 -199.24 119.54 -438.33 358.64 -398.48 199.24 -159.39 39.86 -398.48 -159.4 -239.08c0,0 -1992.4,-1354.84 -3546.47,-1554.07l-617.65 -19.93 -378.55 -99.62z"/>
   <path class="fil12" d="M50509.3 61693.85c0,0 2084.83,-1207.01 3675.88,877.82l603.5 -548.64 329.18 -329.18c0,0 164.6,-1152.14 2029.96,-1371.59l-1920.23 2359.15 164.59 301.75c0,0 82.3,137.15 -384.04,137.15l-356.62 137.16 -548.64 576.07 -329.18 219.45 -329.18 54.87 -192.03 -137.16 82.3 -301.75 246.89 -274.32 137.16 -109.72 27.43 -274.32 -109.73 -164.6c0,0 -1371.59,-932.69 -2441.45,-1069.84l-425.19 -13.72 -260.6 -68.58z"/>
   <path class="fil12" d="M46291.85 48253.56c0,0 2007.75,-1162.39 3539.99,845.36l581.19 -528.35 317.01 -317.01c0,0 158.5,-1109.55 1954.91,-1320.89l-1849.23 2271.93 158.5 290.59c0,0 79.25,132.1 -369.85,132.1l-343.44 132.09 -528.35 554.77 -317.01 211.34 -317.02 52.84 -184.92 -132.09 79.26 -290.6 237.76 -264.17 132.09 -105.68 26.42 -264.18 -105.68 -158.5c0,0 -1320.88,-898.2 -2351.18,-1030.29l-409.48 -13.21 -250.97 -66.04z"/>
  </g>
  <path class="fil3 str2" d="M104056.83 89602.92c-1130.25,-83.31 -2272.58,-158.26 -3423.89,-226.71 1075.44,3190.84 1658.91,6607.76 1658.91,10161.25 0,1501.27 -106.54,2977.45 -307.84,4423.28 1841.63,64.88 3680,141.38 5514.36,227.78 30810,3168.39 54409.12,16333.57 74730.53,30646.02l31465.64 -14913.27c-29335.06,-18300.31 -63914.27,-29553.56 -109637.7,-30318.36zm-64394.3 2168.2c-9332.65,1169.89 -18647.48,2690.67 -27708.06,4550.89l11881.47 17781.4c5461.4,-1992.14 10910.72,-3631.07 16344.24,-4971.76 -957.12,-3027.47 -1474.79,-6250.21 -1474.79,-9594.18 0,-2679.37 332.92,-5280.53 957.13,-7766.34z"/>
  <path class="fil13 str2" d="M119164.29 86413.63c4344.46,0 7866.37,3521.91 7866.37,7866.37 0,4344.46 -3521.91,7866.37 -7866.37,7866.37 -4344.47,0 -7866.37,-3521.91 -7866.37,-7866.37 0,-4344.46 3521.9,-7866.37 7866.37,-7866.37z"/>
  <path class="fil13 str2" d="M138502.55 87642.83c4344.46,0 7866.37,3521.91 7866.37,7866.37 0,4344.46 -3521.91,7866.37 -7866.37,7866.37 -4344.46,0 -7866.37,-3521.91 -7866.37,-7866.37 0,-4344.46 3521.91,-7866.37 7866.37,-7866.37z"/>
  <path class="fil13 str2" d="M158414.38 90224.01c4344.46,0 7866.37,3521.91 7866.37,7866.37 0,4344.47 -3521.91,7866.38 -7866.37,7866.38 -4344.46,0 -7866.37,-3521.91 -7866.37,-7866.38 0,-4344.46 3521.91,-7866.37 7866.37,-7866.37z"/>
  <path class="fil13 str2" d="M177834.56 94648.85c4344.47,0 7866.38,3521.91 7866.38,7866.37 0,4344.47 -3521.91,7866.37 -7866.38,7866.37 -4344.46,0 -7866.37,-3521.9 -7866.37,-7866.37 0,-4344.46 3521.91,-7866.37 7866.37,-7866.37z"/>
  <path class="fil14 str2" d="M177834.56 95796.76c3710.51,0 6718.47,3007.97 6718.47,6718.46 0,3710.51 -3007.97,6718.47 -6718.47,6718.47 -3710.5,0 -6718.46,-3007.97 -6718.46,-6718.47 0,-3710.5 3007.97,-6718.46 6718.46,-6718.46z"/>
  <path class="fil15 str2" d="M158414.38 91371.92c3710.5,0 6718.46,3007.97 6718.46,6718.46 0,3710.51 -3007.97,6718.47 -6718.46,6718.47 -3710.51,0 -6718.47,-3007.97 -6718.47,-6718.47 0,-3710.5 3007.97,-6718.46 6718.47,-6718.46z"/>
  <path class="fil9 str2" d="M138502.55 88790.73c3710.5,0 6718.47,3007.97 6718.47,6718.47 0,3710.5 -3007.98,6718.47 -6718.47,6718.47 -3710.5,0 -6718.47,-3007.98 -6718.47,-6718.47 0,-3710.51 3007.98,-6718.47 6718.47,-6718.47z"/>
  <path class="fil10 str2" d="M119164.29 87561.53c3710.5,0 6718.46,3007.97 6718.46,6718.46 0,3710.51 -3007.97,6718.47 -6718.46,6718.47 -3710.51,0 -6718.47,-3007.97 -6718.47,-6718.47 0,-3710.5 3007.97,-6718.46 6718.47,-6718.46z"/>
  <g id="_1615103018320">
   <path class="fil16" d="M102250.57 65747.28l466.15 1901.49 1938.02 0 -475.31 -1901.49 -1928.86 0zm0 -2276.24l447.94 1901.38 1938.02 0 -457.11 -1901.38 -1928.86 0zm466.15 4616.52l-466.15 4068.12 1928.86 0 475.31 -4068.12 -1938.02 0zm5457.64 -3025.87l914.21 1855.78 1755.11 0 -749.61 -1508.41 749.61 0 0 -1746.06 -5905.47 0 0 1746.06 758.78 0 -758.78 1508.41 1746.06 0 923.26 -1855.78 -850.18 0 0 -685.71 2276.35 0 0 685.71 -859.35 0zm-1316.45 1938.02l0 905.05 -1947.19 0 0 703.92 475.43 0 -530.29 3556.05 1453.55 0 530.29 -3556.05 18.21 0 0 3556.05 2066.07 0 0 -3281.86 493.64 3281.86 1453.55 0 -530.18 -3556.05 530.18 0 0 -703.92 -1947.19 0 0 -905.05 -2066.07 0zm6097.55 -3519.62l-1179.24 4077.28 1032.98 0 0 4589.13 2130.09 0 0 -6499.78 -466.27 0 621.69 -2166.63 -2139.26 0zm2514.02 5768.49l1298.12 -786.16 0 3684.09 3546.99 0 0 -685.6 -1380.36 0 0 -4314.93 1362.15 -831.86 0 -1279.91 -1362.15 831.97 0 -2376.91 -2166.63 0 0 3702.42 -1298.12 786.16 0 1270.75zm11957.54 7101.27c0,137.09 -109.72,255.98 -255.98,255.98l-1151.87 0 0 -2623.74 1407.85 0 0 2367.76zm-5841.56 -3135.59l-859.35 4058.84 722.25 0 0 4570.92 2002.04 0 0 -6472.41 -310.84 0 457.1 -2157.36 -2011.21 0zm2614.57 4086.33l1791.76 0 0 2815.59 -466.26 -420.46 137.09 -1718.69 -1480.92 0 -301.68 3894.38 1471.86 0 45.7 -566.72 594.2 566.72 3391.57 0 0 -694.76 -1572.43 0 0 -1764.28 1426.17 0 0 -694.88 -1426.17 0 0 -1416.9 575.99 0c475.31,0 868.51,-384.02 868.51,-868.5l0 -3144.75 -5055.4 0 0 4013.25zm11637.43 -1901.49l703.92 0 0 2395.13 -703.92 0 0 -2395.13zm-5155.96 -2157.47l128.04 1352.99 2166.52 0 -127.93 -1352.99 -2166.63 0zm-402.25 2385.97l713.09 0 -630.74 3245.31 676.44 0 -630.74 2971.12 8538.38 0 0 -694.77 -6454.09 0 621.69 -3281.96 -703.93 0 649.07 -3016.7 -2779.16 0 0 777zm3217.94 -228.5l466.16 0 0 2395.13 -530.18 0 0 694.76 438.78 0 -429.61 2294.57 1883.16 0 411.4 -2294.57 804.49 0 0 2294.57 1883.16 0 0 -2294.57 484.48 0 0 -694.76 -484.48 0 0 -2395.13 420.57 0 0 -694.76 -420.57 0 0 -1462.71 -1883.16 0 0 1462.71 -703.92 0 0 -1462.71 -1874.11 0 0 1462.71 -466.16 0 0 694.76z"/>
   <path class="fil17" d="M128999.33 63608.14l146.26 1051.31 786.16 0 -137.1 -1051.31 -795.32 0zm-7148.85 54.86l0 1736.91 -530.29 0 0 676.44 530.29 0 0 5284 -530.29 82.24 0 676.44 2733.46 -420.46 0 -676.55 -539.45 82.35 0 -5028.02 539.45 0 0 -676.44 -539.45 0 0 -1736.91 -1663.72 0zm5567.26 -182.91l155.42 1352.99 -3245.31 0 0 7340.8 1499.24 0 0 -4863.32 457.11 0 0 3903.53c0,155.31 -118.89,265.04 -246.82,265.04l-100.56 0 0 694.76 850.18 0c466.15,0 831.86,-383.91 831.86,-868.39l0 -4689.7 -1791.77 0 0 -1087.95 1828.31 0 511.96 4269.24 -411.4 868.51 0 1471.75 548.5 -1161.03 146.37 1197.56 1526.62 0 0 -694.76 -228.49 0 -329.17 -2843.07 557.66 -1170.08 0 -1471.86 -694.76 1453.55 -219.44 -1919.81 923.37 0 0 -694.76 -1005.6 0 -155.42 -1352.99 -1407.84 0zm6307.82 27.48l283.35 1234.1 -3117.26 0 0 694.77 3226.99 0 0 1097 -3062.4 0 0 4607.46 2166.52 0 0 -3912.69 895.88 0 0 4927.46 2175.79 0 0 -4927.46 886.73 0 0 2870.55c0,191.96 -155.42,347.38 -338.22,347.38l-173.75 0 0 694.76 1810.09 0c475.31,0 868.51,-393.08 868.51,-868.51l0 -3738.95 -3053.36 0 0 -1097 3226.99 0 0 -694.77 -3226.99 0 -274.3 -1234.1 -2294.57 0zm7916.79 1810.09l255.98 0 0 923.26 -255.98 0 0 -923.26zm1983.73 0l0 749.62c0,100.56 -82.24,173.63 -173.63,173.63l-100.57 0 0 -923.26 274.2 0zm-2011.21 3400.62l164.59 -1709.42 -1179.25 0 -164.58 1709.42 1179.24 0zm3208.77 0l-164.47 -1709.42 -1188.52 0 164.59 1709.42 1188.4 0zm-4388.01 -4250.81l1462.7 0 0 329.06 -1371.31 0 0 1965.51 1371.31 0 0 1956.24 1453.55 0 0 -1956.24 777.01 0c329.16,0 603.35,-274.3 603.35,-603.36l0 -1362.14 -1380.36 0 0 -329.06 1471.76 0 0 -603.36 -1471.76 0 0 -356.55 -1453.55 0 0 356.55 -1462.7 0 0 603.36zm6024.35 1307.18l210.29 -1032.99 575.98 0 0 1032.99 -420.57 511.96 -191.95 -210.28 -1764.39 0 1133.65 1234.21 -1133.65 1407.73 1846.62 0 274.31 -329.06 310.85 329.06 1791.76 0 -1261.58 -1343.82 959.9 -1151.86 0 -1480.93 301.68 0 0 -612.52 -2294.57 0 127.94 -621.58 -1544.95 0 -511.96 2267.09 1590.64 0zm-6033.52 6399.22l8666.42 0 0 -603.36 -2468.31 0 0 -667.28 2093.45 0 0 -603.35 -2093.45 0 0 -658.23 2385.97 0 0 -612.52 -8501.72 0 0 612.52 3949.23 0 0 1928.86 -1234.21 0 0 -1627.18 -2175.69 0 0 1627.18 -621.68 0 0 603.36zm9626.32 -8648.09l411.4 1892.43 1773.45 0 -411.4 -1892.43 -1773.45 0zm0 2267.19l429.62 1892.32 1773.55 0 -429.72 -1892.32 -1773.45 0zm6472.3 5430.16c0,146.26 -100.56,255.98 -237.66,255.98l-1627.18 0 0 -2596.25 1864.84 0 0 2340.27zm-6042.68 -3108.11l-429.62 4049.69 1773.45 0 429.72 -4049.69 -1773.55 0zm2047.75 -2934.57l1956.34 0 0 1608.96 -1800.92 0 0 694.77 5823.35 0 0 -694.77 -1892.44 0 0 -1608.96 2038.7 0 0 -694.77 -2038.7 0 0 -968.96 -2129.98 0 0 968.96 -1956.34 0 0 694.77zm5841.55 3007.65l-5558.09 0 0 3985.77 4753.61 0c447.94,0 804.48,-393.08 804.48,-868.39l0 -3117.38zm-13913.55 5053.53l1864.84 4644 2166.63 0 -1855.78 -4644 -2175.69 0zm-603.36 0l-1380.47 3446.44 1773.56 0 -1554.11 4433.71 3300.18 0c191.96,0 310.85,-201.12 237.65,-374.76l-722.13 -1947.19 2129.98 0 612.52 1773.45c210.18,603.36 -146.26,1243.26 -777.11,1243.26l-7285.95 0 1508.41 -3930.9 -1864.95 0 1855.78 -4644 2166.63 0zm14197.13 3510.46l-2523.17 -3546.99 -3620.07 0 -2523.18 3546.99 2431.78 0 1956.24 -2632.9 1901.49 2632.9 2376.91 0zm-1444.38 292.52l-283.47 1188.4 795.33 0 923.37 3629.23 -1864.95 0 -365.59 -1426.06 -329.16 1426.06 -3501.29 0 -365.6 -1426.06 -329.16 1426.06 -1864.84 0 1115.22 -4817.63 1874.11 0 -283.46 1188.4 795.32 0 804.49 3190.45 1014.77 -4378.85 1864.95 0zm6636.88 2047.75l-1389.53 -694.76 0 -859.35 2779.05 0 0 859.35 -1389.53 694.76zm-4287.45 -3016.81l2129.98 0 0 -1288.96 4351.47 0 0 1115.33 2129.98 0 0 -1810.09 -3217.82 0 0 -868.51 -2175.8 0 0 868.51 -3217.83 0 0 1983.73zm6097.55 5750.16l2495.69 0 0 -822.7 -475.42 0 -2011.11 -1005.6 1682.04 -850.18 0 -1608.97 850.19 0 0 -694.76 -5741.01 0 0 -557.67 -2111.77 0 0 557.67 -804.49 0 0 694.76 804.49 0 0 1608.97 1682.04 850.18 -2011.1 1005.6 -475.43 0 0 822.7 2504.85 0 1800.93 -914.09 1810.09 914.09zm8986.31 -8611.44l-2440.82 0 -3099.06 3546.99 2468.31 0 1855.69 -2102.61 1846.73 2102.61 2477.37 0 -3108.22 -3546.99zm-5247.35 3903.42l8108.75 0 0 694.88 -2989.33 0 0 1316.33 2989.33 0 0 694.77 -2989.33 0 0 1252.42 3245.31 0 0 694.77 -8666.42 0 0 -694.77 3245.31 0 0 -1252.42 -2989.33 0 0 -694.77 2989.33 0 0 -1316.33 -2943.63 0 0 -694.88z"/>
  </g>
  <path class="fil18" d="M116238.08 90389.69c-179.71,-136.99 -543.54,-320.99 -808.9,-436.57l-278.17 376.64c265.36,128.49 620.58,333.92 791.79,475.1l295.28 -415.16zm-248.15 1129.9c-192.62,-136.99 -560.75,-312.39 -826.01,-415.15l-269.67 385.24c273.86,115.46 637.7,312.39 808.9,453.57l286.77 -423.66zm-278.27 667.61c-239.65,500.81 -552.04,1044.35 -774.57,1365.34l440.76 329.5c252.56,-419.46 505.01,-911.56 723.35,-1369.55l-389.55 -325.3zm3124.33 -830.2l0 -500.82 -1121.29 0 0 -894.45 -517.92 0 0 894.45 -1078.46 0 0 500.82 894.45 0c-231.15,667.6 -642,1331.01 -1121.29,1686.23 115.58,98.47 282.47,282.48 368.02,406.55 372.33,-325.31 693.33,-808.9 937.28,-1365.24l0 1840.34 517.92 0 0 -1887.47c231.03,543.54 534.92,1040.04 868.73,1369.55 89.96,-136.88 256.87,-316.69 376.64,-410.86 -432.27,-363.71 -830.2,-1005.71 -1057.05,-1639.09l932.98 0zm2899.15 -539.34c-89.86,282.48 -201.12,560.75 -342.41,834.62 -184.02,-243.94 -368.03,-475.1 -543.54,-689.02l-410.85 218.23c222.53,282.48 466.48,603.47 689.01,928.78 -248.25,385.13 -539.23,714.63 -851.61,945.78 115.46,89.85 282.47,269.67 363.71,389.44 291.09,-235.35 552.15,-543.54 787.48,-894.45 188.32,295.28 351.03,573.45 453.69,796.1l462.17 -261.06c-141.18,-286.78 -372.32,-646.3 -637.69,-1010.14 188.31,-350.91 351.02,-736.05 475.1,-1129.79l-445.07 -128.49zm-1870.37 -731.85l0 1198.45c0,684.72 -38.42,1669.12 -500.7,2332.43 115.57,55.63 338.1,239.64 423.77,342.41 517.81,-727.55 607.67,-1917.39 607.67,-2674.85l0 -710.55 1938.79 0c-4.3,2225.58 12.81,3321.15 671.92,3321.15 286.78,0 385.24,-226.73 432.27,-778.88 -94.16,-89.85 -222.53,-269.67 -308.08,-398.05 -8.61,338.11 -34.33,637.7 -81.35,637.7 -235.46,0 -231.15,-1129.9 -205.43,-3269.82l-2978.84 0zm-3943.38 5978.1l406.65 0 0 -466.48 -406.65 0 0 -843.12 -470.79 0 0 843.12 -487.91 0 0 466.48 436.57 0c-106.96,492.21 -308.19,1065.77 -539.23,1386.66 77.05,136.99 188.31,368.13 235.34,517.92 132.68,-214.04 252.56,-513.62 355.23,-847.43l0 1634.91 470.79 0 0 -1891.67c102.76,179.71 201.11,372.33 256.87,505.01l286.66 -406.66c-77.05,-106.96 -415.16,-582.05 -543.53,-744.65l0 -154.1zm2777.61 137l-2208.36 0 0 492.2 543.53 0 0 2054.26 500.71 0 0 -2054.26 676.21 0 0 984.3c0,55.63 -21.41,68.54 -81.24,68.54 -59.94,0 -256.87,0 -436.57,-8.61 51.33,141.29 102.65,351.02 115.57,496.52 308.08,0 534.93,-4.3 689.02,-81.35 166.9,-81.35 201.12,-218.23 201.12,-462.18l0 -1489.42zm-380.83 -1014.33l0 -427.96 -492.2 0 0 427.96 -539.34 0 0 -427.96 -496.4 0 0 427.96 -410.86 0 0 457.99 410.86 0 0 419.35 496.4 0 0 -419.35 539.34 0 0 419.35 492.2 0 0 -419.35 534.92 0 0 -457.99 -534.92 0zm4991.93 316.7l0 -500.71 -3864.68 0 0 500.71 1664.82 0 0 398.05 -1480.81 0 0 2841.85 487.9 0 0 -1138.5c222.53,162.71 526.42,393.74 680.52,535.04l308.08 -316.7c-162.6,-128.49 -474.99,-351.02 -693.33,-496.51l-295.28 269.67 0 -1219.75 992.91 0 0 573.45c-166.9,-124.07 -466.49,-312.39 -676.22,-436.57l-290.97 278.27c218.23,145.49 522.12,350.91 671.91,479.29l295.28 -308.19 0 1729.07 500.71 0 0 -1095.57c226.84,162.6 543.64,389.44 701.93,522.12l299.58 -320.99c-166.9,-132.68 -500.71,-350.92 -727.55,-492.21l-273.97 269.67 0 -1198.33 1035.74 0 0 1827.42c0,64.24 -21.42,81.35 -94.17,85.66 -68.43,4.3 -312.39,4.3 -522.12,-4.3 68.44,119.88 136.99,316.69 162.6,445.07 329.61,0 573.56,-8.5 731.85,-81.25 171.21,-77.04 222.64,-196.92 222.64,-440.87l0 -2306.82 -1536.55 0 0 -398.05 1699.15 0zm-1660.63 1288.29c226.85,145.49 543.54,350.91 697.64,479.29l295.39 -325.3c-167.01,-119.77 -492.21,-312.39 -710.55,-440.76l-282.48 286.77z"/>
  <path class="fil18" d="M135144.12 94537.73c624.88,145.48 1472.31,436.46 1887.35,650.5l282.48 -457.99c-449.38,-209.62 -1313.92,-470.68 -1908.77,-590.55l-261.06 398.05zm368.02 -1018.63c398.05,111.27 920.16,312.39 1177.03,475.1l256.76 -432.27c-269.67,-154.09 -804.59,-333.92 -1194.03,-428.07l-239.76 385.24zm-115.46 -1352.43l0 -338.11 1938.68 0 0 457.99 -1938.68 0 0 -119.88zm2465.1 599.17l0 -1420.87 -3004.45 0 0 813.1c0,586.36 -51.33,1390.96 -629.08,1943.1 106.96,68.43 320.99,278.17 402.24,389.44 479.4,-453.69 667.71,-1125.59 731.85,-1724.76l1390.96 0c248.26,727.55 637.7,1343.82 1202.64,1690.54 81.35,-136.99 243.94,-329.5 363.82,-427.96 -470.79,-248.26 -826.01,-723.35 -1048.54,-1262.58l590.55 0zm4183.15 218.23l-894.56 0 0 -1057.05 894.56 0 0 1057.05zm505 -1540.64l-1887.46 0 0 2028.54 1887.46 0 0 -2028.54zm-3094.3 2593.49l0 -517.82 419.36 0 0 453.69 -419.36 64.13zm419.36 -2246.88l0 445.08 -419.36 0 0 -445.08 419.36 0zm-419.36 860.23l419.36 0 0 453.69 -419.36 0 0 -453.69zm1138.4 1647.71l-29.91 -436.46 -222.65 34.22 0 -2105.7 205.43 0 0 -453.68 -1746.06 0 0 453.68 192.51 0 0 2315.43 -256.76 34.22 98.47 470.78c303.78,-51.33 663.3,-115.57 1039.93,-179.81l0 736.16 466.48 0 0 -821.7 252.56 -47.13zm363.83 -483.59c-111.27,402.35 -321,804.6 -586.37,1052.85 119.77,68.44 325.31,205.43 419.36,286.78 265.36,-291.09 513.62,-753.26 654.91,-1228.36l-487.9 -111.27zm808.89 145.48c209.62,376.64 436.46,873.15 509.21,1181.34l483.7 -192.63c-85.66,-316.69 -325.3,-791.79 -543.53,-1155.61l-449.38 166.89zm-6622.64 5391.85c624.88,145.49 1472.31,436.46 1887.35,650.5l282.48 -457.98c-449.38,-209.62 -1313.92,-470.68 -1908.77,-590.56l-261.06 398.05zm368.02 -1018.62c398.05,111.26 920.16,312.39 1177.03,475.1l256.76 -432.27c-269.67,-154.1 -804.59,-333.92 -1194.03,-428.07l-239.76 385.24zm-115.46 -1352.44l0 -338.1 1938.68 0 0 457.98 -1938.68 0 0 -119.88zm2465.1 599.17l0 -1420.87 -3004.45 0 0 813.1c0,586.37 -51.33,1390.96 -629.08,1943.1 106.96,68.44 320.99,278.18 402.24,389.44 479.4,-453.68 667.71,-1125.59 731.85,-1724.76l1390.96 0c248.26,727.55 637.7,1343.82 1202.64,1690.54 81.35,-136.99 243.94,-329.49 363.82,-427.95 -470.79,-248.26 -826.01,-723.35 -1048.54,-1262.59l590.55 0zm3147.41 847.43l-535.04 0 0 325.3c0,256.76 -136.88,603.36 -1592.07,826.02 115.57,102.65 265.36,286.66 329.6,397.94 1549.25,-299.58 1797.51,-787.49 1797.51,-1211.14l0 -338.11zm1194.03 714.74l0 -1253.97 -2897.38 0 0 1305.31 513.51 0 0 -877.35 1848.95 0 0 826.01 534.92 0zm-1339.52 265.37c496.41,149.79 1176.93,410.85 1515.03,599.16l248.26 -419.45c-355.22,-184.02 -1044.35,-419.46 -1527.94,-547.84l-235.35 368.14zm145.49 -2071.48l0 -179.71 1288.19 0 0 -346.73 -1288.19 0 0 -179.71 1476.51 0 0 -380.93 -1476.51 0 0 -261.06 -522.12 0 0 261.06 -1416.68 0 0 380.93 1416.68 0 0 179.71 -1219.75 0 0 346.73 1219.75 0 0 179.71 -1664.94 0 0 393.74 3843.38 0 0 -393.74 -1656.32 0z"/>
  <path class="fil18" d="M157260.04 95282.82l-826.01 0 0 -184.01 826.01 0 0 184.01zm-826.01 488.02l0 -184.13 826.01 0 0 184.13 -826.01 0zm-1305.31 0l0 -184.13 834.63 0 0 184.13 -834.63 0zm834.63 -672.03l0 184.01 -834.63 0 0 -184.01 834.63 0zm-697.63 -474.99c278.17,38.53 611.97,98.35 915.86,166.9l-1519.33 0 0 1532.14 466.48 0 0 -248.25 834.63 0 0 154.09 470.68 0 0 -154.09 826.01 0 0 252.56 492.2 0 0 -1536.45 -744.65 0 94.16 -124.18c-77.05,-25.6 -166.9,-51.33 -269.67,-77.05 316.69,-119.76 624.88,-269.56 881.64,-419.35l-303.89 -282.48 -106.96 25.61 -2700.57 0 0 380.94 2037.26 0c-136.99,64.24 -282.47,119.87 -423.76,166.89 -248.26,-47.02 -500.71,-81.24 -714.75,-106.96l-235.34 269.67zm1078.46 1857.44c17.11,-64.24 25.71,-128.49 38.52,-196.92l-509.31 0c-12.81,68.43 -25.61,132.68 -42.72,196.92l-1313.92 0 0 406.55 1104.18 0c-205.43,214.04 -582.06,363.82 -1305.41,453.68 89.96,106.97 196.92,295.28 235.45,419.36 997.22,-162.6 1437.98,-445.08 1656.32,-873.03l1091.27 0c-38.53,218.23 -85.55,338.1 -136.88,380.93 -42.84,29.92 -85.67,38.53 -154.1,38.53 -85.66,0 -286.78,-4.3 -479.4,-21.41 72.86,119.76 124.18,299.58 132.68,427.96 231.14,12.8 449.37,8.61 573.56,0 141.18,-12.81 252.45,-38.53 350.91,-137 119.88,-106.96 201.12,-372.32 269.68,-898.75 12.8,-68.44 21.41,-196.82 21.41,-196.82l-1532.25 0zm6246.01 -1074.27l-1605 0 0 -877.34 1313.92 0 0 -505.01 -3252.6 0 0 505.01 1399.45 0 0 877.34 -1690.54 0 0 505.01 1690.54 0 0 1172.73c0,85.55 -38.53,111.27 -132.68,115.47 -98.46,4.3 -436.57,4.3 -753.27,-12.81 85.67,149.8 184.02,385.24 214.04,539.24 423.66,0 736.16,-12.8 937.28,-98.35 205.43,-81.35 273.86,-222.65 273.86,-539.34l0 -1176.92 1605 0 0 -505.01zm-5184.56 4527.21l-1074.27 0 0 -624.88 1074.27 0 0 624.88zm0 1121.29l-1074.27 0 0 -646.19 1074.27 0 0 646.19zm509.32 -2216.86l-2071.48 0 0 2687.65 2071.48 0 0 -2687.65zm-2234.08 1532.14l-419.45 106.97 0 -629.09 449.37 0 0 -470.79 -449.37 0 0 -808.89 -496.52 0 0 808.89 -530.62 0 0 470.79 530.62 0 0 748.97c-213.93,51.33 -419.36,98.46 -586.25,132.68l132.68 487.9 453.57 -119.88 0 890.26c0,59.93 -21.3,81.25 -81.25,81.25 -55.63,0 -235.45,0 -402.35,-4.19 59.93,128.37 128.38,329.49 141.29,462.17 299.58,0 509.21,-12.8 650.5,-94.16 141.18,-72.75 188.32,-196.93 188.32,-445.07l0 -1018.63c162.59,-42.83 320.99,-89.85 479.29,-132.68l-59.84 -466.49zm-132.68 1574.98l0 475.1 2627.82 0 0 -475.1 -2627.82 0zm6271.62 -3252.72c-102.77,333.81 -299.58,774.68 -466.49,1069.96l445.07 154.1c184.01,-269.67 402.36,-676.22 590.67,-1057.16l-569.25 -166.9zm-1831.84 1001.53c-94.16,-273.87 -303.78,-667.72 -530.62,-963l-462.29 184.02c209.73,299.58 419.46,714.74 500.82,984.4l492.09 -205.42zm967.31 -1134.21l-560.64 0 0 1480.82 -1296.8 0 0 509.31 2674.85 0 0 393.75 -2529.36 0 0 492.2 2529.36 0 0 445.07 -2773.31 0 0 505.12 2773.31 0 0 175.4 543.53 0 0 -2520.85 -1360.93 0 0 -1480.82z"/>
  <path class="fil18" d="M175877.74 99823.28l0 -445.07c89.85,-128.38 175.52,-261.06 248.26,-393.74l1331.02 0 0 -522.12 -3710.59 0 0 522.12 1707.66 0c-398.06,654.8 -1065.66,1318.21 -1844.64,1681.92 111.27,115.58 269.67,325.31 350.91,462.29 513.62,-265.36 971.61,-637.7 1361.05,-1052.85l0 2088.59 556.33 0 0 -2216.96c462.29,355.22 1044.36,843.11 1309.61,1159.81l432.27 -389.44c-308.08,-338.11 -967.2,-830.32 -1425.18,-1159.92l-316.7 265.36zm5492.75 -111.27c-149.79,77.05 -342.41,166.9 -509.32,235.46 -124.07,-64.25 -235.34,-145.6 -325.3,-235.46l834.62 0zm-179.81 813.21c179.81,55.63 368.13,98.47 577.86,128.38 55.63,-124.07 171.21,-303.89 265.36,-393.74 -299.58,-25.72 -569.25,-81.35 -804.7,-158.3 184.12,-64.24 398.05,-145.59 590.66,-231.14l-282.47 -158.41 436.57 0 0 -350.91 -3008.76 0c12.81,-145.48 17.12,-282.47 17.12,-406.54l0 -235.46 2850.36 0 0 -376.63 -3321.15 0 0 599.17c0,440.87 -47.02,1040.04 -453.69,1472.31 115.58,55.63 321,192.62 406.66,273.86 252.45,-273.86 380.83,-624.77 449.37,-975.81l308.08 0 0 355.23c0,175.51 -124.07,235.45 -213.93,261.06 55.64,81.35 115.58,261.17 136.88,363.82l0 -4.3c102.77,-51.33 265.37,-81.25 1288.3,-218.23 -21.41,-94.16 -38.53,-256.76 -47.13,-372.33l-706.13 81.25 0 -466.49 372.32 0c235.46,363.83 582.06,616.29 1035.74,778.98l-398.05 0 0 295.28 -2559.27 0 0 415.16 898.75 0 -201.23 154.09c231.15,166.9 509.32,415.16 633.5,582.06l385.13 -316.69c-102.66,-124.18 -295.28,-286.78 -479.29,-419.46l1322.4 0 0 436.57c0,55.63 -21.41,68.43 -94.16,68.43 -64.13,4.31 -316.69,4.31 -530.73,-4.3 59.93,132.68 124.18,316.7 145.59,453.69 338.11,0 582.06,0 753.27,-68.44 179.71,-68.54 226.73,-192.62 226.73,-436.57l0 -449.37 830.31 0 0 -415.16 -830.31 0 0 -261.06zm406.65 -1322.51l0 -333.81 -2379.56 0 0 333.81 2379.56 0zm-6164.66 5807l0 -423.77 526.42 0 0 368.03 0 55.74 -526.42 0zm1562.16 -423.77l0 423.77 -530.73 0 0 -51.44 0 -372.33 530.73 0zm487.91 834.63l0 -1249.78 -1018.63 0 0 -299.58 1134.2 0 0 -462.18 -1134.2 0 0 -389.44 -505.01 0 0 389.44 -1044.35 0c38.53,-94.16 77.05,-184.01 115.58,-273.97l-470.79 -153.99c-231.03,607.67 -629.09,1211.14 -1035.63,1596.39 85.55,124.07 222.53,397.94 269.56,522.12 119.88,-119.88 235.46,-256.87 351.02,-402.35l0 2298.32 483.6 0 0 -3025.87c94.16,-162.6 179.71,-329.61 256.75,-492.2l0 393.74 1074.27 0 0 299.58 -984.4 0 0 1249.78 954.39 0c-25.61,175.4 -72.75,333.8 -158.3,487.9 -158.41,-128.49 -295.28,-273.98 -398.05,-440.87l-415.16 128.38c145.48,243.94 316.69,462.28 526.42,637.69 -184.01,141.3 -436.57,252.56 -778.88,329.61 102.66,106.96 252.45,312.39 316.7,423.66 380.82,-111.27 671.91,-269.56 877.34,-457.88 398.05,226.73 885.94,376.53 1463.7,449.38 64.24,-132.68 196.92,-342.41 303.89,-453.69 -577.76,-51.33 -1069.96,-171.21 -1463.7,-359.52 128.38,-226.84 201.12,-479.4 235.34,-744.65l1044.36 0zm1880.51 -179.82l0 654.81 -479.41 0 0 -654.81 479.41 0zm475.1 -440.76l-1416.68 0 0 1883.06 462.17 0 0 -342.3 954.51 0 0 -1540.75zm1908.77 4.19l-1579.28 0 0 2191.36 500.71 0 0 -1741.87 590.66 0 0 710.43c0,47.02 -17.11,64.14 -72.74,64.14 -51.45,0 -226.85,0 -385.24,-4.31 51.44,132.69 115.57,321 128.38,457.99 278.27,0 483.7,0 629.19,-77.05 154.1,-77.04 188.32,-205.42 188.32,-427.96l0 -1172.73zm-2294.02 -706.13c231.14,-141.18 453.68,-299.58 646.3,-466.49 166.89,171.21 350.91,325.31 560.64,466.49l-1206.95 0zm646.3 -1176.92c-410.86,534.92 -1258.27,1018.62 -2071.48,1206.84 115.57,136.99 231.14,342.41 295.28,492.2 273.97,-89.85 552.14,-205.43 817.5,-346.61l0 278.17 1831.73 0 0 -265.36c243.94,132.68 509.32,235.35 778.98,312.4 81.25,-149.8 235.34,-368.03 363.71,-483.6 -667.6,-136.99 -1309.6,-436.57 -1694.74,-800.28 29.92,-34.22 59.83,-68.55 85.55,-102.77l-406.54 -290.97z"/>
  <path class="fil19" d="M191938.05 63492.98l-1527.21 0c-348.02,0 -632.81,285.06 -632.81,632.81l0 0c0,347.59 285.3,632.7 632.81,632.7l1527.21 0c347.59,0 632.8,-284.69 632.8,-632.7l0 0c0,-348.06 -284.74,-632.81 -632.8,-632.81zm-7404.35 2290.05l0 522.3 6889.55 0c347.96,0 632.71,284.65 632.71,632.62l0 0.09c0,347.83 -284.83,632.66 -632.71,632.66l-10395.04 0c-347.59,0 -632.71,-284.87 -632.71,-632.66l0 -0.09c0,-347.78 284.87,-632.62 632.71,-632.62l1078.61 0 -244.73 -522.3 -2822.35 0c-348.06,0 -632.71,-284.74 -632.71,-632.75l0 0c0,-348.07 284.82,-632.71 632.71,-632.71l7813.83 0c347.82,0 632.7,284.74 632.7,632.71l0 0c0,347.91 -284.79,632.75 -632.7,632.75l-2319.88 0zm-3475.2 2329.97l-1863.55 0c-347.92,0 -632.71,285.11 -632.71,632.71l0 0c0,347.73 285.16,632.8 632.71,632.8l1863.55 0c347.55,0 632.71,-284.74 632.71,-632.8l0 0c0,-348.01 -284.83,-632.71 -632.71,-632.71z"/>
  <path class="fil20" d="M88975.92 84832.59l-1570.05 0c-357.82,0 -650.61,293.02 -650.61,650.49l0 0c0,357.47 293.24,650.5 650.61,650.5l1570.05 0c357.36,0 650.61,-292.68 650.61,-650.5l0 0c0,-357.81 -292.79,-650.49 -650.61,-650.49zm-10358.82 2891.35l0 -537.01 -2901.67 0c-357.81,0 -650.49,-292.79 -650.49,-650.49l0 0c0,-357.82 292.91,-650.5 650.49,-650.5l8033.19 0c357.59,0 650.49,292.68 650.49,650.5l0 0c0,357.7 -292.79,650.49 -650.49,650.49l-2384.98 0 0 537.01 7082.99 0c357.7,0 650.49,292.56 650.49,650.38l0 0c0,357.58 -292.79,650.49 -650.49,650.49l-10686.9 0c-357.25,0 -650.5,-292.91 -650.5,-650.49l0 0c0,-357.59 292.91,-650.38 650.5,-650.38l857.37 0zm-826.16 1858.41l-1915.96 0c-357.7,0 -650.37,293.02 -650.37,650.38l0 0c0,357.47 293.12,650.61 650.37,650.61l1915.96 0c357.24,0 650.37,-292.79 650.37,-650.61l0 0c0,-357.7 -292.79,-650.38 -650.37,-650.38z"/>
  <path class="fil10" style="mask:url(#id0)" d="M63088.84 78858.13c3710.5,0 6718.46,3007.97 6718.46,6718.47 0,3710.5 -3007.97,6718.46 -6718.46,6718.46 -3710.51,0 -6718.47,-3007.97 -6718.47,-6718.46 0,-3710.51 3007.97,-6718.47 6718.47,-6718.47z"/>
  <g id="_1615103022064">
   <path class="fil21" d="M32245.89 214453.31l-3173.39 0 0 -850.4 3173.39 0 0 850.4zm0 1775.87l-3173.39 0 0 -855.26 3173.39 0 0 855.26zm0 1770.9l-3173.39 0 0 -850.29 3173.39 0 0 850.29zm0 1775.87l-3173.39 0 0 -850.63 3173.39 0 0 850.63zm0 1775.65l-3173.39 0 0 -850.52 3173.39 0 0 850.52zm-4025.9 -7098.3l-3173.4 0 0 -850.4 3173.4 0 0 850.4zm0 1775.87l-3173.4 0 0 -855.26 3173.4 0 0 855.26zm0 1770.9l-3173.4 0 0 -850.29 3173.4 0 0 850.29zm0 1775.87l-3173.4 0 0 -850.63 3173.4 0 0 850.63zm0 1775.65l-3173.4 0 0 -850.52 3173.4 0 0 850.52zm-4641.54 1285.09l-332.06 0 0 -22668.5 332.06 0 0 22668.5zm-1350.31 -20018.82l-1184.13 0 0 -1700.81 1184.13 0 0 1700.81zm0 2593.49l-1184.13 0 0 -1696.4 1184.13 0 0 1696.4zm0 2598.01l-1184.13 0 0 -1696.18 1184.13 0 0 1696.18zm0 2598.23l-1184.13 0 0 -1696.17 1184.13 0 0 1696.17zm0 2598.24l-1184.13 0 0 -1701.15 1184.13 0 0 1701.15zm0 2598.12l-1184.13 0 0 -1701.03 1184.13 0 0 1701.03zm0 2593.49l-1184.13 0 0 -1696.29 1184.13 0 0 1696.29zm0 2598.01l-1184.13 0 0 -1696.4 1184.13 0 0 1696.4zm-1917.94 -18177.61l-1184.45 0 0 -1700.81 1184.45 0 0 1700.81zm0 2593.49l-1184.45 0 0 -1696.4 1184.45 0 0 1696.4zm0 2598.01l-1184.45 0 0 -1696.18 1184.45 0 0 1696.18zm0 2598.23l-1184.45 0 0 -1696.17 1184.45 0 0 1696.17zm0 2598.24l-1184.45 0 0 -1701.15 1184.45 0 0 1701.15zm0 2598.12l-1184.45 0 0 -1701.03 1184.45 0 0 1701.03zm0 2593.49l-1184.45 0 0 -1696.29 1184.45 0 0 1696.29zm0 2598.01l-1184.45 0 0 -1696.4 1184.45 0 0 1696.4zm-2202.82 1841.21l-331.73 0 0 -22668.5 331.73 0 0 22668.5zm-1563.23 -20018.82l-1184.02 0 0 -1700.81 1184.02 0 0 1700.81zm0 2593.49l-1184.02 0 0 -1696.4 1184.02 0 0 1696.4zm0 2598.01l-1184.02 0 0 -1696.18 1184.02 0 0 1696.18zm0 2598.23l-1184.02 0 0 -1696.17 1184.02 0 0 1696.17zm0 2598.24l-1184.02 0 0 -1701.15 1184.02 0 0 1701.15zm0 2598.12l-1184.02 0 0 -1701.03 1184.02 0 0 1701.03zm0 2593.49l-1184.02 0 0 -1696.29 1184.02 0 0 1696.29zm0 2598.01l-1184.02 0 0 -1696.4 1184.02 0 0 1696.4zm-1918.26 -18177.61l-1184.13 0 0 -1700.81 1184.13 0 0 1700.81zm0 2593.49l-1184.13 0 0 -1696.4 1184.13 0 0 1696.4zm0 2598.01l-1184.13 0 0 -1696.18 1184.13 0 0 1696.18zm0 2598.23l-1184.13 0 0 -1696.17 1184.13 0 0 1696.17zm0 2598.24l-1184.13 0 0 -1701.15 1184.13 0 0 1701.15zm0 2598.12l-1184.13 0 0 -1701.03 1184.13 0 0 1701.03zm0 2593.49l-1184.13 0 0 -1696.29 1184.13 0 0 1696.29zm0 2598.01l-1184.13 0 0 -1696.4 1184.13 0 0 1696.4zm-1989.37 1841.21l-331.39 0 0 -22668.5 331.39 0 0 22668.5zm-3049.8 -8046.71l-2255.08 0 0 -2378.57 2255.08 0 0 2378.57zm0 3023.21l-2255.08 0 0 -2378.46 2255.08 0 0 2378.46zm0 3023.55l-2255.08 0 0 -2378.79 2255.08 0 0 2378.79zm-2984.01 -6046.76l-2254.85 0 0 -2378.57 2254.85 0 0 2378.57zm0 3023.21l-2254.85 0 0 -2378.46 2254.85 0 0 2378.46zm0 3023.55l-2254.85 0 0 -2378.79 2254.85 0 0 2378.79zm-2983.78 -6046.76l-2255.18 0 0 -2378.57 2255.18 0 0 2378.57zm0 3023.21l-2255.18 0 0 -2378.46 2255.18 0 0 2378.46zm0 3023.55l-2255.18 0 0 -2378.79 2255.18 0 0 2378.79zm21143.22 -8532.74l0 -12883.34 -13357.01 0 0 11088.81 -11367.86 0 0 13182.26 32967.04 0 0 -11387.73 -8242.17 0z"/>
   <path class="fil21" d="M128814.75 217830.75l-1827.63 0 0 -1254.41 1827.63 0 0 1254.41zm0 1889.68l-1827.63 0 0 -1254.42 1827.63 0 0 1254.42zm0 1889.45l-1827.63 0 0 -1254.08 1827.63 0 0 1254.08zm-2343.11 -3779.13l-1826.76 0 0 -1254.41 1826.76 0 0 1254.41zm0 1889.68l-1826.76 0 0 -1254.42 1826.76 0 0 1254.42zm0 1889.45l-1826.76 0 0 -1254.08 1826.76 0 0 1254.08zm-2342.23 -3779.13l-1826.76 0 0 -1254.41 1826.76 0 0 1254.41zm0 1889.68l-1826.76 0 0 -1254.42 1826.76 0 0 1254.42zm0 1889.45l-1826.76 0 0 -1254.08 1826.76 0 0 1254.08zm-3279.52 -15852.79l-3044.93 0 0 -251.02 3044.93 0 0 251.02zm0 785.93l-3044.93 0 0 -242.51 3044.93 0 0 242.51zm0 794.22l-3044.93 0 0 -250.79 3044.93 0 0 250.79zm0 785.94l-3044.93 0 0 -242.4 3044.93 0 0 242.4zm0 794.44l-3044.93 0 0 -250.91 3044.93 0 0 250.91zm0 785.93l-3044.93 0 0 -242.4 3044.93 0 0 242.4zm0 794.22l-3044.93 0 0 -250.79 3044.93 0 0 250.79zm0 785.94l-3044.93 0 0 -242.51 3044.93 0 0 242.51zm0 794.44l-3044.93 0 0 -251.02 3044.93 0 0 251.02zm0 785.93l-3044.93 0 0 -242.4 3044.93 0 0 242.4zm0 794.33l-3044.93 0 0 -242.51 3044.93 0 0 242.51zm0 794.33l-3044.93 0 0 -250.9 3044.93 0 0 250.9zm0 785.94l-3044.93 0 0 -242.41 3044.93 0 0 242.41zm0 794.21l-3044.93 0 0 -250.79 3044.93 0 0 250.79zm0 785.94l-3044.93 0 0 -242.51 3044.93 0 0 242.51zm0 794.55l-3044.93 0 0 -251.13 3044.93 0 0 251.13zm0 785.94l-3044.93 0 0 -242.52 3044.93 0 0 242.52zm0 794.21l-3044.93 0 0 -250.79 3044.93 0 0 250.79zm0 785.83l-3044.93 0 0 -242.4 3044.93 0 0 242.4zm0 794.44l-3044.93 0 0 -250.91 3044.93 0 0 250.91zm0 785.93l-3044.93 0 0 -242.4 3044.93 0 0 242.4zm0 794.33l-3044.93 0 0 -250.79 3044.93 0 0 250.79zm-4310.47 -4523.34l-1100.66 0 0 -1162.35 1100.66 0 0 1162.35zm0 1839.35l-1100.66 0 0 -1153.74 1100.66 0 0 1153.74zm0 1839.44l-1100.66 0 0 -1153.74 1100.66 0 0 1153.74zm-1745.24 -3678.79l-1100.44 0 0 -1162.35 1100.44 0 0 1162.35zm0 1839.35l-1100.44 0 0 -1153.74 1100.44 0 0 1153.74zm0 1839.44l-1100.44 0 0 -1153.74 1100.44 0 0 1153.74zm-1744.37 -3678.79l-1101.41 0 0 -1162.35 1101.41 0 0 1162.35zm0 1839.35l-1101.41 0 0 -1153.74 1101.41 0 0 1153.74zm0 1839.44l-1101.41 0 0 -1153.74 1101.41 0 0 1153.74zm-2554.06 1337.64l-327.6 0 0 -21488.04 327.6 0 0 21488.04zm-843.51 0l-327.5 0 0 -21488.04 327.5 0 0 21488.04zm-842.87 0l-328.47 0 0 -21488.04 328.47 0 0 21488.04zm-843.84 0l-327.49 0 0 -21488.04 327.49 0 0 21488.04zm-842.87 0l-328.36 0 0 -21488.04 328.36 0 0 21488.04zm-843.73 0l-327.6 0 0 -21488.04 327.6 0 0 21488.04zm-842.96 0l-328.15 0 0 -21488.04 328.15 0 0 21488.04zm-842.87 0l-328.15 0 0 -21488.04 328.15 0 0 21488.04zm-1265.54 -19071.83l-1545.99 0 0 -2173.7 1545.99 0 0 2173.7zm0 3068.7l-1545.99 0 0 -2173.81 1545.99 0 0 2173.81zm0 3059.97l-1545.99 0 0 -2173.81 1545.99 0 0 2173.81zm0 3060.31l-1545.99 0 0 -2173.81 1545.99 0 0 2173.81zm0 3068.59l-1545.99 0 0 -2173.81 1545.99 0 0 2173.81zm0 3060.31l-1545.99 0 0 -2174.03 1545.99 0 0 2174.03zm0 3060.09l-1545.99 0 0 -2173.92 1545.99 0 0 2173.92zm-1921.19 -25443.25l7356.05 3612.13 -7356.05 0 0 -3612.13zm-1639 24849.7l-7496.33 0 0 -5133.88 7496.33 0 0 5133.88zm-10120.1 -7901.34l-1171.12 0 0 -4791.02 1171.12 0 0 4791.02zm0 6672.31l-1171.12 0 0 -4790.91 1171.12 0 0 4790.91zm-2061.57 -6672.31l-1171.12 0 0 -4791.02 1171.12 0 0 4791.02zm0 6672.31l-1171.12 0 0 -4790.91 1171.12 0 0 4790.91zm-2061.02 -6672.31l-1171.88 0 0 -4791.02 1171.88 0 0 4791.02zm0 6672.31l-1171.88 0 0 -4790.91 1171.88 0 0 4790.91zm-2061.47 -6672.31l-1171.01 0 0 -4791.02 1171.01 0 0 4791.02zm0 6672.31l-1171.01 0 0 -4790.91 1171.01 0 0 4790.91zm-2061.67 -6672.31l-1171.13 0 0 -4791.02 1171.13 0 0 4791.02zm0 6672.31l-1171.13 0 0 -4790.91 1171.13 0 0 4790.91zm-2061.57 -6672.31l-1171.24 0 0 -4791.02 1171.24 0 0 4791.02zm0 6672.31l-1171.24 0 0 -4790.91 1171.24 0 0 4790.91zm-2061.68 -6672.31l-1171.02 0 0 -4791.02 1171.02 0 0 4791.02zm0 6672.31l-1171.02 0 0 -4790.91 1171.02 0 0 4790.91zm-2060.71 -6672.31l-1171.23 0 0 -4791.02 1171.23 0 0 4791.02zm0 6672.31l-1171.23 0 0 -4790.91 1171.23 0 0 4790.91zm-2061.68 -6672.31l-1171.12 0 0 -4791.02 1171.12 0 0 4791.02zm0 6672.31l-1171.12 0 0 -4790.91 1171.12 0 0 4790.91zm-3262.18 -29656.52l-3278.76 0 0 -2458.26 3278.76 0 0 2458.26zm0 3928.82l-3278.76 0 0 -2453.96 3278.76 0 0 2453.96zm0 3938.31l-3278.76 0 0 -2458.26 3278.76 0 0 2458.26zm0 3938.09l-3278.76 0 0 -2458.27 3278.76 0 0 2458.27zm0 3929.69l-3278.76 0 0 -2458.16 3278.76 0 0 2458.16zm0 3929.92l-3278.76 0 0 -2458.26 3278.76 0 0 2458.26zm0 3938.09l-3278.76 0 0 -2458.27 3278.76 0 0 2458.27zm0 3929.69l-3278.76 0 0 -2458.05 3278.76 0 0 2458.05zm0 3938.2l-3278.76 0 0 -2458.26 3278.76 0 0 2458.26zm-4702.79 -31470.81l-3279.52 0 0 -2458.26 3279.52 0 0 2458.26zm0 3928.82l-3279.52 0 0 -2453.96 3279.52 0 0 2453.96zm0 3938.31l-3279.52 0 0 -2458.26 3279.52 0 0 2458.26zm0 3938.09l-3279.52 0 0 -2458.27 3279.52 0 0 2458.27zm0 3929.69l-3279.52 0 0 -2458.16 3279.52 0 0 2458.16zm0 3929.92l-3279.52 0 0 -2458.26 3279.52 0 0 2458.26zm0 3938.09l-3279.52 0 0 -2458.27 3279.52 0 0 2458.27zm0 3929.69l-3279.52 0 0 -2458.05 3279.52 0 0 2458.05zm0 3938.2l-3279.52 0 0 -2458.26 3279.52 0 0 2458.26zm-4966.01 -593.76l-1405.82 0 0 -35545.98 1405.82 0 0 35545.98zm-3239.95 -25033.38l-6692.27 0 0 -1914.85 6692.27 0 0 1914.85zm0 4665.64l-6692.27 0 0 -1906.57 6692.27 0 0 1906.57zm0 4673.8l-6692.27 0 0 -1914.74 6692.27 0 0 1914.74zm0 4665.63l-6692.27 0 0 -1906.35 6692.27 0 0 1906.35zm0 4665.64l-6692.27 0 0 -1906.35 6692.27 0 0 1906.35zm0 4673.8l-6692.27 0 0 -1914.63 6692.27 0 0 1914.63zm-7911.2 1688.88l-842.87 0 0 -27675.55 842.87 0 0 27675.55zm-3466.63 0l-749.2 0 0 -14205.63 749.2 0 0 14205.63zm-2576.94 -9473.1l-3420.02 0 0 -3603.74 3420.02 0 0 3603.74zm0 4732.41l-3420.02 0 0 -3603.73 3420.02 0 0 3603.73zm0 4740.69l-3420.02 0 0 -3603.51 3420.02 0 0 3603.51zm-4684.58 -9473.1l-3420.02 0 0 -3603.74 3420.02 0 0 3603.74zm0 4732.41l-3420.02 0 0 -3603.73 3420.02 0 0 3603.73zm0 4740.69l-3420.02 0 0 -3603.51 3420.02 0 0 3603.51zm83758.75 -6162.11l0 -10718.91 -5481.69 0 0 10718.91 -5012.73 0 0 -15167.19 -11293.6 -5710.76 0 20877.96 -8279.14 0 0 -7708.94 -20802.5 0 0 -21934.11 -13492.63 0 0 7117.83 -10682.19 0 0 13035.11 -14055.59 0 0 17792.69 98386.72 0 0 -8302.58 -9286.67 0z"/>
  </g>
  <g id="_1615103022544">
   <polygon class="fil3 str1" points="124153.99,223691.74 37.27,223691.74 37.27,228216.85 220806.76,228216.85 220806.76,212883.75 133937.94,212883.75 "/>
   <polygon class="fil22 str1" points="136217.05,209693.63 220806.76,209693.63 220806.76,211263.52 134795.85,211263.52 "/>
  </g>
 </g>
</svg>
